<mxfile host="Electron" modified="2023-06-14T19:06:28.130Z" agent="Mozilla/5.0 (Windows NT 10.0; Win64; x64) AppleWebKit/537.36 (KHTML, like Gecko) draw.io/21.3.7 Chrome/112.0.5615.204 Electron/24.5.0 Safari/537.36" etag="QXqSMORYXvt1JRIk0C-Z" version="21.3.7" type="device">
  <diagram name="Vertical Layout" id="dnwuv-coI-IxM_Jpl8L4">
    <mxGraphModel dx="1014" dy="682" grid="1" gridSize="10" guides="1" tooltips="1" connect="1" arrows="1" fold="1" page="1" pageScale="1" pageWidth="1169" pageHeight="827" background="#ffffff" math="0" shadow="0">
      <root>
        <mxCell id="4V3ssLJCjmIX0rNH-N5X-0" />
        <mxCell id="4V3ssLJCjmIX0rNH-N5X-1" parent="4V3ssLJCjmIX0rNH-N5X-0" />
        <mxCell id="4V3ssLJCjmIX0rNH-N5X-2" value="Connectity platform landing zone subscription&lt;br&gt;&lt;font face=&quot;Lucida Console&quot;&gt;rg-connectivity-regional-hubs&lt;/font&gt;" style="rounded=0;whiteSpace=wrap;html=1;fillColor=#FFFFFF;strokeColor=#666666;fontColor=#000000;dashed=1;absoluteArcSize=0;arcSize=3;fontFamily=Segoe UI;align=right;verticalAlign=top;spacingRight=3;" parent="4V3ssLJCjmIX0rNH-N5X-1" vertex="1">
          <mxGeometry x="40" y="80" width="310" height="410" as="geometry" />
        </mxCell>
        <mxCell id="4V3ssLJCjmIX0rNH-N5X-3" value="Hub-Spoke Network Topology" style="text;html=1;strokeColor=none;fillColor=none;align=left;verticalAlign=middle;whiteSpace=wrap;rounded=0;dashed=1;dashPattern=1 1;fontFamily=Segoe UI;fontSize=16;fontColor=#000000;" parent="4V3ssLJCjmIX0rNH-N5X-1" vertex="1">
          <mxGeometry x="40" y="40" width="240" height="30" as="geometry" />
        </mxCell>
        <mxCell id="4V3ssLJCjmIX0rNH-N5X-4" value="Application landing zone subscription&lt;br&gt;&lt;font face=&quot;Lucida Console&quot;&gt;rg-bu04a42-spoke&lt;/font&gt;" style="rounded=0;whiteSpace=wrap;html=1;fillColor=#FFFFFF;strokeColor=#666666;fontColor=#000000;dashed=1;absoluteArcSize=0;arcSize=3;fontFamily=Segoe UI;align=right;verticalAlign=top;spacingRight=3;" parent="4V3ssLJCjmIX0rNH-N5X-1" vertex="1">
          <mxGeometry x="370" y="80" width="400" height="410" as="geometry" />
        </mxCell>
        <mxCell id="4V3ssLJCjmIX0rNH-N5X-5" value="" style="rounded=1;whiteSpace=wrap;html=1;fillColor=#f5f5f5;strokeColor=#666666;fontColor=#000000;dashed=1;dashPattern=1 1;absoluteArcSize=0;arcSize=3;fontFamily=Segoe UI;" parent="4V3ssLJCjmIX0rNH-N5X-1" vertex="1">
          <mxGeometry x="70" y="130" width="260" height="320" as="geometry" />
        </mxCell>
        <mxCell id="4V3ssLJCjmIX0rNH-N5X-8" value="" style="rounded=1;whiteSpace=wrap;html=1;fillColor=#f5f5f5;strokeColor=#666666;fontColor=#000000;dashed=1;dashPattern=1 1;absoluteArcSize=0;arcSize=3;fontFamily=Segoe UI;fontSize=10;" parent="4V3ssLJCjmIX0rNH-N5X-1" vertex="1">
          <mxGeometry x="60" y="119" width="260" height="320" as="geometry" />
        </mxCell>
        <mxCell id="4V3ssLJCjmIX0rNH-N5X-10" value="Peering" style="edgeStyle=orthogonalEdgeStyle;rounded=0;orthogonalLoop=1;jettySize=auto;html=1;fontFamily=Segoe UI;fontSize=11;fillColor=#d5e8d4;strokeColor=#009900;exitX=0.211;exitY=1.006;exitDx=0;exitDy=0;exitPerimeter=0;fontColor=#000000;labelBackgroundColor=none;" parent="4V3ssLJCjmIX0rNH-N5X-1" edge="1">
          <mxGeometry x="-0.1584" y="-10" relative="1" as="geometry">
            <mxPoint x="476.51" y="439.91999999999985" as="sourcePoint" />
            <mxPoint x="270" y="439" as="targetPoint" />
            <Array as="points">
              <mxPoint x="476" y="480" />
              <mxPoint x="270" y="480" />
            </Array>
            <mxPoint as="offset" />
          </mxGeometry>
        </mxCell>
        <mxCell id="4V3ssLJCjmIX0rNH-N5X-11" value="" style="rounded=1;whiteSpace=wrap;html=1;fillColor=#f5f5f5;strokeColor=#666666;fontColor=#000000;dashed=1;dashPattern=1 1;absoluteArcSize=0;arcSize=3;fontFamily=Segoe UI;" parent="4V3ssLJCjmIX0rNH-N5X-1" vertex="1">
          <mxGeometry x="390" y="120" width="300" height="330" as="geometry" />
        </mxCell>
        <mxCell id="4V3ssLJCjmIX0rNH-N5X-13" value="" style="shape=image;verticalLabelPosition=bottom;labelBackgroundColor=default;verticalAlign=top;aspect=fixed;imageAspect=0;image=data:image/svg+xml,PHN2ZyB4bWxucz0iaHR0cDovL3d3dy53My5vcmcvMjAwMC9zdmciIHZpZXdCb3g9IjAgMCA1MCA1MCIgY2xhc3M9ImZ4cy1wb3J0YWwtc3ZnIiBkYXRhLXR5cGU9IjEiPjxnIGNsYXNzPSJtc3BvcnRhbGZ4LXN2Zy1jMDQiIGZpbGw9IiM3YTdhN2EiPjxwYXRoIGQ9Ik0yNS43NzYgMzYuNTAzaDQuOTU3YzEuODAzIDAgMi44MTcuODA3IDMuNjA1IDIuNDIyaC04LjU2M2MtMS4zNTIgMC0yLjI1MyAxLjU4Ny0yLjI1MyAyLjkzOXMxLjAxNCAyLjcxMyAyLjI1MyAyLjcxM2g4LjU2M0MzMy41NSA0Ni4xOTMgMzIuNTM2IDQ3IDMwLjczNCA0N2gtNC45NTdjLTIuNzA0IDAtNC44NDUtMi41NDQtNC44NDUtNS4yNDgtLjAwMS0yLjcwNSAyLjI1My01LjI0OSA0Ljg0NC01LjI0OXptMTkuNDkyIDIuNDIyaC04LjU2M2MuNzg5LTEuNjE1IDEuODAzLTIuNDIyIDMuNjA1LTIuNDIyaDQuOTU3YzIuNzA0IDAgNC43MzIgMi42NTcgNC43MzIgNS4zNjFDNTAgNDQuNTY4IDQ3Ljg1OSA0NyA0NS4yNjggNDdINDAuMzFjLTEuODAzIDAtMi44MTctLjgwNy0zLjYwNS0yLjQyMmg4LjU2M2MxLjM1MiAwIDIuMjUzLTEuNTg3IDIuMjUzLTIuNzEzIDAtMS4zNTMtLjc4OC0yLjk0LTIuMjUzLTIuOTR6Ii8+PHBhdGggZD0iTTQxLjY2MyA0Mi45NjNIMjkuNDk0Yy0uNjc2IDAtMi4xNDEtLjUzNS0yLjE0MS0xLjIxMXMxLjQ2NS0xLjIxMSAyLjE0MS0xLjIxMWgxMi4xNjhjLjY3NiAwIDIuNTkxLjMxIDIuNTkxLjk4Ni4wMDEuOTAxLTEuOTE0IDEuNDM2LTIuNTkgMS40MzZ6Ii8+PC9nPjxwYXRoIGQ9Ik00OS43IDIyLjA3NWMuNS0uNS40LTEuMyAwLTEuOGwtMi40LTIuNC0xMC44LTEwLjVjLS41LS41LTEuMi0uNS0xLjcgMHMtLjYgMS4zIDAgMS44bDExLjMgMTEuMWMuNS41LjUgMS4zIDAgMS44bC0xMS41IDExLjVjLS41LjUtLjUgMS4zIDAgMS44czEuMy40IDEuNyAwbDEwLjctMTAuNi4xLS4xIDIuNi0yLjZ6bS00OS40IDBjLS41LS41LS40LTEuMyAwLTEuOGwyLjQtMi40IDEwLjgtMTAuNWMuNS0uNSAxLjItLjUgMS43IDBzLjYgMS4zIDAgMS44bC0xMS4xIDExLjFjLS41LjUtLjUgMS4zIDAgMS44bDExLjMgMTEuNWMuNS41LjUgMS4zIDAgMS44cy0xLjMuNC0xLjcgMGwtMTAuOS0xMC41LS4xLS4xLTIuNC0yLjd6IiBjbGFzcz0ibXNwb3J0YWxmeC1zdmctYzE2IiBmaWxsPSIjMzk5OWM2Ii8+PGNpcmNsZSBjeD0iMzUuMiIgY3k9IjIxLjE3NSIgcj0iMy4zIiBjbGFzcz0ibXNwb3J0YWxmeC1zdmctYzE0IiBmaWxsPSIjN2ZiYTAwIi8+PGNpcmNsZSBjeD0iMjQuOSIgY3k9IjIxLjE3NSIgcj0iMy4zIiBjbGFzcz0ibXNwb3J0YWxmeC1zdmctYzE0IiBmaWxsPSIjN2ZiYTAwIi8+PGNpcmNsZSBjeD0iMTQuOCIgY3k9IjIxLjE3NSIgcj0iMy4zIiBjbGFzcz0ibXNwb3J0YWxmeC1zdmctYzE0IiBmaWxsPSIjN2ZiYTAwIi8+PC9zdmc+;fontFamily=Segoe UI;fontColor=#000000;" parent="4V3ssLJCjmIX0rNH-N5X-1" vertex="1">
          <mxGeometry x="420" y="460" width="20" height="20" as="geometry" />
        </mxCell>
        <mxCell id="4V3ssLJCjmIX0rNH-N5X-14" value="" style="group;fontSize=10;fontColor=#000000;" parent="4V3ssLJCjmIX0rNH-N5X-1" vertex="1" connectable="0">
          <mxGeometry x="180" y="190" width="110" height="74" as="geometry" />
        </mxCell>
        <mxCell id="4V3ssLJCjmIX0rNH-N5X-15" value="AzureFirewallSubnet" style="shape=image;verticalLabelPosition=bottom;labelBackgroundColor=none;verticalAlign=top;aspect=fixed;imageAspect=0;image=data:image/svg+xml,PHN2ZyB4bWxucz0iaHR0cDovL3d3dy53My5vcmcvMjAwMC9zdmciIHZpZXdCb3g9IjAgMCAxNiAxNiI+JiN4YTsgIDxkZWZzPiYjeGE7ICAgIDxsaW5lYXJHcmFkaWVudCBpZD0iYiIgeDE9IjYuMTgiIHkxPSI4LjU5IiB4Mj0iNy44MSIgeTI9IjEwLjIzIiBncmFkaWVudFVuaXRzPSJ1c2VyU3BhY2VPblVzZSI+JiN4YTsgICAgICA8c3RvcCBvZmZzZXQ9IjAiIHN0b3AtY29sb3I9IiM4NmQ2MzMiLz4mI3hhOyAgICAgIDxzdG9wIG9mZnNldD0iMSIgc3RvcC1jb2xvcj0iIzVlOTYyNCIvPiYjeGE7ICAgIDwvbGluZWFyR3JhZGllbnQ+JiN4YTsmI3hhOyAgPC9kZWZzPiYjeGE7ICA8Y2lyY2xlIGN4PSI4IiBjeT0iOCIgcj0iMS4yIiBmaWxsPSJ1cmwoI2IpIi8+JiN4YTsgIDxwYXRoIGQ9Ik02LjE4MiAxMi42MzhsLS42NjQuNjY1YS4zLjMgMCAwMS0uNDI0IDBMLjE4IDguNDA0YS42LjYgMCAwMS0uMDAxLS44NDhsLjY2My0uNjY2IDUuMzQgNS4zMjRhLjMuMyAwIDAxMCAuNDI1eiIgZmlsbD0iIzUwZTZmZiIvPiYjeGE7ICA8cGF0aCBkPSJNNS40MTggMi43MDhsLjY2Ni42NjRhLjMuMyAwIDAxMCAuNDI0TC44MzggOS4wNTdsLS42NjYtLjY2M2EuNi42IDAgMDEtLjAwMS0uODQ5TDQuOTk0IDIuNzFhLjMuMyAwIDAxLjQyNCAweiIgZmlsbD0iIzE0OTBkZiIvPiYjeGE7ICA8cGF0aCBkPSJNMTUuMTU3IDYuODhsLjY2My42NjZhLjYuNiAwIDAxMCAuODQ4bC00LjkxNSA0LjlhLjMuMyAwIDAxLS40MjQgMGwtLjY2NC0uNjY2YS4zLjMgMCAwMTAtLjQyNGw1LjM0LTUuMzI0eiIgZmlsbD0iIzUwZTZmZiIvPiYjeGE7ICA8cGF0aCBkPSJNMTUuODE4IDguMzg3bC0uNjY1LjY2NC01LjI0Ny01LjI2MWEuMy4zIDAgMDEwLS40MjVsLjY3NC0uNjdhLjMuMyAwIDAxLjQyNCAwbDQuODIzIDQuODM2YS42LjYgMCAwMS0uMDAyLjg0OXoiIGZpbGw9IiMxNDkwZGYiLz4mI3hhOzwvc3ZnPg==;spacingTop=-5;fontFamily=Segoe UI;fontSize=10;fontColor=#000000;" parent="4V3ssLJCjmIX0rNH-N5X-14" vertex="1">
          <mxGeometry x="35" width="40" height="40" as="geometry" />
        </mxCell>
        <mxCell id="4V3ssLJCjmIX0rNH-N5X-16" value="10.200.0.0/26" style="text;html=1;strokeColor=none;fillColor=#F5F5F5;align=center;verticalAlign=middle;whiteSpace=wrap;rounded=0;dashed=1;dashPattern=1 1;fontFamily=Lucida Console;fontSize=9;fontColor=#000000;" parent="4V3ssLJCjmIX0rNH-N5X-14" vertex="1">
          <mxGeometry y="54" width="110" height="20" as="geometry" />
        </mxCell>
        <mxCell id="zRif5njoNv-ngSvgMs1W-17" value="" style="image;aspect=fixed;html=1;points=[];align=center;fontSize=12;image=img/lib/azure2/networking/Network_Security_Groups.svg;" vertex="1" parent="4V3ssLJCjmIX0rNH-N5X-14">
          <mxGeometry x="80" y="13" width="11.53" height="14" as="geometry" />
        </mxCell>
        <mxCell id="4V3ssLJCjmIX0rNH-N5X-17" value="" style="group;fontSize=10;fontColor=#000000;" parent="4V3ssLJCjmIX0rNH-N5X-1" vertex="1" connectable="0">
          <mxGeometry x="180" y="270" width="110" height="74" as="geometry" />
        </mxCell>
        <mxCell id="4V3ssLJCjmIX0rNH-N5X-18" value="GatewaySubnet" style="shape=image;verticalLabelPosition=bottom;labelBackgroundColor=none;verticalAlign=top;aspect=fixed;imageAspect=0;image=data:image/svg+xml,PHN2ZyB4bWxucz0iaHR0cDovL3d3dy53My5vcmcvMjAwMC9zdmciIHZpZXdCb3g9IjAgMCAxNiAxNiI+JiN4YTsgIDxkZWZzPiYjeGE7ICAgIDxsaW5lYXJHcmFkaWVudCBpZD0iYiIgeDE9IjYuMTgiIHkxPSI4LjU5IiB4Mj0iNy44MSIgeTI9IjEwLjIzIiBncmFkaWVudFVuaXRzPSJ1c2VyU3BhY2VPblVzZSI+JiN4YTsgICAgICA8c3RvcCBvZmZzZXQ9IjAiIHN0b3AtY29sb3I9IiM4NmQ2MzMiLz4mI3hhOyAgICAgIDxzdG9wIG9mZnNldD0iMSIgc3RvcC1jb2xvcj0iIzVlOTYyNCIvPiYjeGE7ICAgIDwvbGluZWFyR3JhZGllbnQ+JiN4YTsmI3hhOyAgPC9kZWZzPiYjeGE7ICA8Y2lyY2xlIGN4PSI4IiBjeT0iOCIgcj0iMS4yIiBmaWxsPSJ1cmwoI2IpIi8+JiN4YTsgIDxwYXRoIGQ9Ik02LjE4MiAxMi42MzhsLS42NjQuNjY1YS4zLjMgMCAwMS0uNDI0IDBMLjE4IDguNDA0YS42LjYgMCAwMS0uMDAxLS44NDhsLjY2My0uNjY2IDUuMzQgNS4zMjRhLjMuMyAwIDAxMCAuNDI1eiIgZmlsbD0iIzUwZTZmZiIvPiYjeGE7ICA8cGF0aCBkPSJNNS40MTggMi43MDhsLjY2Ni42NjRhLjMuMyAwIDAxMCAuNDI0TC44MzggOS4wNTdsLS42NjYtLjY2M2EuNi42IDAgMDEtLjAwMS0uODQ5TDQuOTk0IDIuNzFhLjMuMyAwIDAxLjQyNCAweiIgZmlsbD0iIzE0OTBkZiIvPiYjeGE7ICA8cGF0aCBkPSJNMTUuMTU3IDYuODhsLjY2My42NjZhLjYuNiAwIDAxMCAuODQ4bC00LjkxNSA0LjlhLjMuMyAwIDAxLS40MjQgMGwtLjY2NC0uNjY2YS4zLjMgMCAwMTAtLjQyNGw1LjM0LTUuMzI0eiIgZmlsbD0iIzUwZTZmZiIvPiYjeGE7ICA8cGF0aCBkPSJNMTUuODE4IDguMzg3bC0uNjY1LjY2NC01LjI0Ny01LjI2MWEuMy4zIDAgMDEwLS40MjVsLjY3NC0uNjdhLjMuMyAwIDAxLjQyNCAwbDQuODIzIDQuODM2YS42LjYgMCAwMS0uMDAyLjg0OXoiIGZpbGw9IiMxNDkwZGYiLz4mI3hhOzwvc3ZnPg==;spacingTop=-5;fontFamily=Segoe UI;fontSize=10;fontColor=#000000;" parent="4V3ssLJCjmIX0rNH-N5X-17" vertex="1">
          <mxGeometry x="35" width="40" height="40" as="geometry" />
        </mxCell>
        <mxCell id="4V3ssLJCjmIX0rNH-N5X-19" value="10.200.0.64/27" style="text;html=1;strokeColor=none;fillColor=#F5F5F5;align=center;verticalAlign=middle;whiteSpace=wrap;rounded=0;dashed=1;dashPattern=1 1;fontFamily=Lucida Console;fontSize=9;fontColor=#000000;" parent="4V3ssLJCjmIX0rNH-N5X-17" vertex="1">
          <mxGeometry y="54" width="110" height="20" as="geometry" />
        </mxCell>
        <mxCell id="zRif5njoNv-ngSvgMs1W-18" value="" style="image;aspect=fixed;html=1;points=[];align=center;fontSize=12;image=img/lib/azure2/networking/Network_Security_Groups.svg;" vertex="1" parent="4V3ssLJCjmIX0rNH-N5X-17">
          <mxGeometry x="80" y="13" width="11.53" height="14" as="geometry" />
        </mxCell>
        <mxCell id="4V3ssLJCjmIX0rNH-N5X-20" value="" style="group;fontSize=10;fontColor=#000000;" parent="4V3ssLJCjmIX0rNH-N5X-1" vertex="1" connectable="0">
          <mxGeometry x="180" y="350" width="110" height="74" as="geometry" />
        </mxCell>
        <mxCell id="4V3ssLJCjmIX0rNH-N5X-21" value="AzureBastionSubnet" style="shape=image;verticalLabelPosition=bottom;labelBackgroundColor=none;verticalAlign=top;aspect=fixed;imageAspect=0;image=data:image/svg+xml,PHN2ZyB4bWxucz0iaHR0cDovL3d3dy53My5vcmcvMjAwMC9zdmciIHZpZXdCb3g9IjAgMCAxNiAxNiI+JiN4YTsgIDxkZWZzPiYjeGE7ICAgIDxsaW5lYXJHcmFkaWVudCBpZD0iYiIgeDE9IjYuMTgiIHkxPSI4LjU5IiB4Mj0iNy44MSIgeTI9IjEwLjIzIiBncmFkaWVudFVuaXRzPSJ1c2VyU3BhY2VPblVzZSI+JiN4YTsgICAgICA8c3RvcCBvZmZzZXQ9IjAiIHN0b3AtY29sb3I9IiM4NmQ2MzMiLz4mI3hhOyAgICAgIDxzdG9wIG9mZnNldD0iMSIgc3RvcC1jb2xvcj0iIzVlOTYyNCIvPiYjeGE7ICAgIDwvbGluZWFyR3JhZGllbnQ+JiN4YTsmI3hhOyAgPC9kZWZzPiYjeGE7ICA8Y2lyY2xlIGN4PSI4IiBjeT0iOCIgcj0iMS4yIiBmaWxsPSJ1cmwoI2IpIi8+JiN4YTsgIDxwYXRoIGQ9Ik02LjE4MiAxMi42MzhsLS42NjQuNjY1YS4zLjMgMCAwMS0uNDI0IDBMLjE4IDguNDA0YS42LjYgMCAwMS0uMDAxLS44NDhsLjY2My0uNjY2IDUuMzQgNS4zMjRhLjMuMyAwIDAxMCAuNDI1eiIgZmlsbD0iIzUwZTZmZiIvPiYjeGE7ICA8cGF0aCBkPSJNNS40MTggMi43MDhsLjY2Ni42NjRhLjMuMyAwIDAxMCAuNDI0TC44MzggOS4wNTdsLS42NjYtLjY2M2EuNi42IDAgMDEtLjAwMS0uODQ5TDQuOTk0IDIuNzFhLjMuMyAwIDAxLjQyNCAweiIgZmlsbD0iIzE0OTBkZiIvPiYjeGE7ICA8cGF0aCBkPSJNMTUuMTU3IDYuODhsLjY2My42NjZhLjYuNiAwIDAxMCAuODQ4bC00LjkxNSA0LjlhLjMuMyAwIDAxLS40MjQgMGwtLjY2NC0uNjY2YS4zLjMgMCAwMTAtLjQyNGw1LjM0LTUuMzI0eiIgZmlsbD0iIzUwZTZmZiIvPiYjeGE7ICA8cGF0aCBkPSJNMTUuODE4IDguMzg3bC0uNjY1LjY2NC01LjI0Ny01LjI2MWEuMy4zIDAgMDEwLS40MjVsLjY3NC0uNjdhLjMuMyAwIDAxLjQyNCAwbDQuODIzIDQuODM2YS42LjYgMCAwMS0uMDAyLjg0OXoiIGZpbGw9IiMxNDkwZGYiLz4mI3hhOzwvc3ZnPg==;spacingTop=-5;fontFamily=Segoe UI;fontStyle=0;fontSize=10;fontColor=#000000;" parent="4V3ssLJCjmIX0rNH-N5X-20" vertex="1">
          <mxGeometry x="35" width="40" height="40" as="geometry" />
        </mxCell>
        <mxCell id="4V3ssLJCjmIX0rNH-N5X-22" value="10.200.0.128/26" style="text;html=1;strokeColor=none;fillColor=#F5F5F5;align=center;verticalAlign=middle;whiteSpace=wrap;rounded=0;dashed=1;dashPattern=1 1;fontFamily=Lucida Console;fontSize=9;fontColor=#000000;" parent="4V3ssLJCjmIX0rNH-N5X-20" vertex="1">
          <mxGeometry y="54" width="110" height="20" as="geometry" />
        </mxCell>
        <mxCell id="zRif5njoNv-ngSvgMs1W-19" value="" style="image;aspect=fixed;html=1;points=[];align=center;fontSize=12;image=img/lib/azure2/networking/Network_Security_Groups.svg;" vertex="1" parent="4V3ssLJCjmIX0rNH-N5X-20">
          <mxGeometry x="80" y="13" width="11.53" height="14" as="geometry" />
        </mxCell>
        <mxCell id="4V3ssLJCjmIX0rNH-N5X-23" value="" style="group;fontSize=10;fontColor=#000000;" parent="4V3ssLJCjmIX0rNH-N5X-1" vertex="1" connectable="0">
          <mxGeometry x="560" y="120" width="110" height="74" as="geometry" />
        </mxCell>
        <mxCell id="4V3ssLJCjmIX0rNH-N5X-24" value="snet-frontend" style="shape=image;verticalLabelPosition=bottom;labelBackgroundColor=none;verticalAlign=top;aspect=fixed;imageAspect=0;image=data:image/svg+xml,PHN2ZyB4bWxucz0iaHR0cDovL3d3dy53My5vcmcvMjAwMC9zdmciIHZpZXdCb3g9IjAgMCAxNiAxNiI+JiN4YTsgIDxkZWZzPiYjeGE7ICAgIDxsaW5lYXJHcmFkaWVudCBpZD0iYiIgeDE9IjYuMTgiIHkxPSI4LjU5IiB4Mj0iNy44MSIgeTI9IjEwLjIzIiBncmFkaWVudFVuaXRzPSJ1c2VyU3BhY2VPblVzZSI+JiN4YTsgICAgICA8c3RvcCBvZmZzZXQ9IjAiIHN0b3AtY29sb3I9IiM4NmQ2MzMiLz4mI3hhOyAgICAgIDxzdG9wIG9mZnNldD0iMSIgc3RvcC1jb2xvcj0iIzVlOTYyNCIvPiYjeGE7ICAgIDwvbGluZWFyR3JhZGllbnQ+JiN4YTsmI3hhOyAgPC9kZWZzPiYjeGE7ICA8Y2lyY2xlIGN4PSI4IiBjeT0iOCIgcj0iMS4yIiBmaWxsPSJ1cmwoI2IpIi8+JiN4YTsgIDxwYXRoIGQ9Ik02LjE4MiAxMi42MzhsLS42NjQuNjY1YS4zLjMgMCAwMS0uNDI0IDBMLjE4IDguNDA0YS42LjYgMCAwMS0uMDAxLS44NDhsLjY2My0uNjY2IDUuMzQgNS4zMjRhLjMuMyAwIDAxMCAuNDI1eiIgZmlsbD0iIzUwZTZmZiIvPiYjeGE7ICA8cGF0aCBkPSJNNS40MTggMi43MDhsLjY2Ni42NjRhLjMuMyAwIDAxMCAuNDI0TC44MzggOS4wNTdsLS42NjYtLjY2M2EuNi42IDAgMDEtLjAwMS0uODQ5TDQuOTk0IDIuNzFhLjMuMyAwIDAxLjQyNCAweiIgZmlsbD0iIzE0OTBkZiIvPiYjeGE7ICA8cGF0aCBkPSJNMTUuMTU3IDYuODhsLjY2My42NjZhLjYuNiAwIDAxMCAuODQ4bC00LjkxNSA0LjlhLjMuMyAwIDAxLS40MjQgMGwtLjY2NC0uNjY2YS4zLjMgMCAwMTAtLjQyNGw1LjM0LTUuMzI0eiIgZmlsbD0iIzUwZTZmZiIvPiYjeGE7ICA8cGF0aCBkPSJNMTUuODE4IDguMzg3bC0uNjY1LjY2NC01LjI0Ny01LjI2MWEuMy4zIDAgMDEwLS40MjVsLjY3NC0uNjdhLjMuMyAwIDAxLjQyNCAwbDQuODIzIDQuODM2YS42LjYgMCAwMS0uMDAyLjg0OXoiIGZpbGw9IiMxNDkwZGYiLz4mI3hhOzwvc3ZnPg==;spacingTop=-5;fontFamily=Segoe UI;fontSize=10;fontColor=#000000;" parent="4V3ssLJCjmIX0rNH-N5X-23" vertex="1">
          <mxGeometry x="35" width="40" height="40" as="geometry" />
        </mxCell>
        <mxCell id="4V3ssLJCjmIX0rNH-N5X-25" value="10.240.0.0/24&amp;nbsp;↫" style="text;html=1;strokeColor=none;fillColor=#F5F5F5;align=center;verticalAlign=middle;whiteSpace=wrap;rounded=0;dashed=1;dashPattern=1 1;fontFamily=Lucida Console;fontSize=9;fontColor=#000000;" parent="4V3ssLJCjmIX0rNH-N5X-23" vertex="1">
          <mxGeometry y="54" width="110" height="20" as="geometry" />
        </mxCell>
        <mxCell id="4V3ssLJCjmIX0rNH-N5X-26" value="" style="group;fontColor=#000000;" parent="4V3ssLJCjmIX0rNH-N5X-1" vertex="1" connectable="0">
          <mxGeometry x="560" y="200" width="110" height="74" as="geometry" />
        </mxCell>
        <mxCell id="4V3ssLJCjmIX0rNH-N5X-27" value="snet-backend" style="shape=image;verticalLabelPosition=bottom;labelBackgroundColor=none;verticalAlign=top;aspect=fixed;imageAspect=0;image=data:image/svg+xml,PHN2ZyB4bWxucz0iaHR0cDovL3d3dy53My5vcmcvMjAwMC9zdmciIHZpZXdCb3g9IjAgMCAxNiAxNiI+JiN4YTsgIDxkZWZzPiYjeGE7ICAgIDxsaW5lYXJHcmFkaWVudCBpZD0iYiIgeDE9IjYuMTgiIHkxPSI4LjU5IiB4Mj0iNy44MSIgeTI9IjEwLjIzIiBncmFkaWVudFVuaXRzPSJ1c2VyU3BhY2VPblVzZSI+JiN4YTsgICAgICA8c3RvcCBvZmZzZXQ9IjAiIHN0b3AtY29sb3I9IiM4NmQ2MzMiLz4mI3hhOyAgICAgIDxzdG9wIG9mZnNldD0iMSIgc3RvcC1jb2xvcj0iIzVlOTYyNCIvPiYjeGE7ICAgIDwvbGluZWFyR3JhZGllbnQ+JiN4YTsmI3hhOyAgPC9kZWZzPiYjeGE7ICA8Y2lyY2xlIGN4PSI4IiBjeT0iOCIgcj0iMS4yIiBmaWxsPSJ1cmwoI2IpIi8+JiN4YTsgIDxwYXRoIGQ9Ik02LjE4MiAxMi42MzhsLS42NjQuNjY1YS4zLjMgMCAwMS0uNDI0IDBMLjE4IDguNDA0YS42LjYgMCAwMS0uMDAxLS44NDhsLjY2My0uNjY2IDUuMzQgNS4zMjRhLjMuMyAwIDAxMCAuNDI1eiIgZmlsbD0iIzUwZTZmZiIvPiYjeGE7ICA8cGF0aCBkPSJNNS40MTggMi43MDhsLjY2Ni42NjRhLjMuMyAwIDAxMCAuNDI0TC44MzggOS4wNTdsLS42NjYtLjY2M2EuNi42IDAgMDEtLjAwMS0uODQ5TDQuOTk0IDIuNzFhLjMuMyAwIDAxLjQyNCAweiIgZmlsbD0iIzE0OTBkZiIvPiYjeGE7ICA8cGF0aCBkPSJNMTUuMTU3IDYuODhsLjY2My42NjZhLjYuNiAwIDAxMCAuODQ4bC00LjkxNSA0LjlhLjMuMyAwIDAxLS40MjQgMGwtLjY2NC0uNjY2YS4zLjMgMCAwMTAtLjQyNGw1LjM0LTUuMzI0eiIgZmlsbD0iIzUwZTZmZiIvPiYjeGE7ICA8cGF0aCBkPSJNMTUuODE4IDguMzg3bC0uNjY1LjY2NC01LjI0Ny01LjI2MWEuMy4zIDAgMDEwLS40MjVsLjY3NC0uNjdhLjMuMyAwIDAxLjQyNCAwbDQuODIzIDQuODM2YS42LjYgMCAwMS0uMDAyLjg0OXoiIGZpbGw9IiMxNDkwZGYiLz4mI3hhOzwvc3ZnPg==;spacingTop=-5;fontFamily=Segoe UI;fontSize=10;fontColor=#000000;" parent="4V3ssLJCjmIX0rNH-N5X-26" vertex="1">
          <mxGeometry x="35" width="40" height="40" as="geometry" />
        </mxCell>
        <mxCell id="4V3ssLJCjmIX0rNH-N5X-28" value="10.240.1.0/24&amp;nbsp;↫" style="text;html=1;strokeColor=none;fillColor=#F5F5F5;align=center;verticalAlign=middle;whiteSpace=wrap;rounded=0;dashed=1;dashPattern=1 1;fontFamily=Lucida Console;fontSize=9;fontColor=#000000;" parent="4V3ssLJCjmIX0rNH-N5X-26" vertex="1">
          <mxGeometry y="54" width="110" height="20" as="geometry" />
        </mxCell>
        <mxCell id="zRif5njoNv-ngSvgMs1W-13" value="" style="image;aspect=fixed;html=1;points=[];align=center;fontSize=12;image=img/lib/azure2/networking/Network_Security_Groups.svg;" vertex="1" parent="4V3ssLJCjmIX0rNH-N5X-26">
          <mxGeometry x="80" y="13" width="11.53" height="14" as="geometry" />
        </mxCell>
        <mxCell id="4V3ssLJCjmIX0rNH-N5X-29" value="" style="group;fontColor=#000000;" parent="4V3ssLJCjmIX0rNH-N5X-1" vertex="1" connectable="0">
          <mxGeometry x="560" y="280" width="110" height="74" as="geometry" />
        </mxCell>
        <mxCell id="4V3ssLJCjmIX0rNH-N5X-30" value="snet-ilbs" style="shape=image;verticalLabelPosition=bottom;labelBackgroundColor=none;verticalAlign=top;aspect=fixed;imageAspect=0;image=data:image/svg+xml,PHN2ZyB4bWxucz0iaHR0cDovL3d3dy53My5vcmcvMjAwMC9zdmciIHZpZXdCb3g9IjAgMCAxNiAxNiI+JiN4YTsgIDxkZWZzPiYjeGE7ICAgIDxsaW5lYXJHcmFkaWVudCBpZD0iYiIgeDE9IjYuMTgiIHkxPSI4LjU5IiB4Mj0iNy44MSIgeTI9IjEwLjIzIiBncmFkaWVudFVuaXRzPSJ1c2VyU3BhY2VPblVzZSI+JiN4YTsgICAgICA8c3RvcCBvZmZzZXQ9IjAiIHN0b3AtY29sb3I9IiM4NmQ2MzMiLz4mI3hhOyAgICAgIDxzdG9wIG9mZnNldD0iMSIgc3RvcC1jb2xvcj0iIzVlOTYyNCIvPiYjeGE7ICAgIDwvbGluZWFyR3JhZGllbnQ+JiN4YTsmI3hhOyAgPC9kZWZzPiYjeGE7ICA8Y2lyY2xlIGN4PSI4IiBjeT0iOCIgcj0iMS4yIiBmaWxsPSJ1cmwoI2IpIi8+JiN4YTsgIDxwYXRoIGQ9Ik02LjE4MiAxMi42MzhsLS42NjQuNjY1YS4zLjMgMCAwMS0uNDI0IDBMLjE4IDguNDA0YS42LjYgMCAwMS0uMDAxLS44NDhsLjY2My0uNjY2IDUuMzQgNS4zMjRhLjMuMyAwIDAxMCAuNDI1eiIgZmlsbD0iIzUwZTZmZiIvPiYjeGE7ICA8cGF0aCBkPSJNNS40MTggMi43MDhsLjY2Ni42NjRhLjMuMyAwIDAxMCAuNDI0TC44MzggOS4wNTdsLS42NjYtLjY2M2EuNi42IDAgMDEtLjAwMS0uODQ5TDQuOTk0IDIuNzFhLjMuMyAwIDAxLjQyNCAweiIgZmlsbD0iIzE0OTBkZiIvPiYjeGE7ICA8cGF0aCBkPSJNMTUuMTU3IDYuODhsLjY2My42NjZhLjYuNiAwIDAxMCAuODQ4bC00LjkxNSA0LjlhLjMuMyAwIDAxLS40MjQgMGwtLjY2NC0uNjY2YS4zLjMgMCAwMTAtLjQyNGw1LjM0LTUuMzI0eiIgZmlsbD0iIzUwZTZmZiIvPiYjeGE7ICA8cGF0aCBkPSJNMTUuODE4IDguMzg3bC0uNjY1LjY2NC01LjI0Ny01LjI2MWEuMy4zIDAgMDEwLS40MjVsLjY3NC0uNjdhLjMuMyAwIDAxLjQyNCAwbDQuODIzIDQuODM2YS42LjYgMCAwMS0uMDAyLjg0OXoiIGZpbGw9IiMxNDkwZGYiLz4mI3hhOzwvc3ZnPg==;spacingTop=-5;fontFamily=Segoe UI;fontStyle=0;fontSize=10;fontColor=#000000;" parent="4V3ssLJCjmIX0rNH-N5X-29" vertex="1">
          <mxGeometry x="35" width="40" height="40" as="geometry" />
        </mxCell>
        <mxCell id="4V3ssLJCjmIX0rNH-N5X-31" value="10.240.4.0/28&amp;nbsp;↫" style="text;html=1;strokeColor=none;fillColor=#F5F5F5;align=center;verticalAlign=middle;whiteSpace=wrap;rounded=0;dashed=1;dashPattern=1 1;fontFamily=Lucida Console;fontSize=9;fontColor=#000000;" parent="4V3ssLJCjmIX0rNH-N5X-29" vertex="1">
          <mxGeometry y="54" width="110" height="20" as="geometry" />
        </mxCell>
        <mxCell id="zRif5njoNv-ngSvgMs1W-12" value="" style="image;aspect=fixed;html=1;points=[];align=center;fontSize=12;image=img/lib/azure2/networking/Network_Security_Groups.svg;" vertex="1" parent="4V3ssLJCjmIX0rNH-N5X-29">
          <mxGeometry x="80" y="13" width="11.53" height="14" as="geometry" />
        </mxCell>
        <mxCell id="4V3ssLJCjmIX0rNH-N5X-32" value="" style="group;strokeColor=none;rounded=0;glass=0;shadow=0;sketch=0;fontColor=#000000;" parent="4V3ssLJCjmIX0rNH-N5X-1" vertex="1" connectable="0">
          <mxGeometry x="560" y="360" width="110" height="74" as="geometry" />
        </mxCell>
        <mxCell id="4V3ssLJCjmIX0rNH-N5X-33" value="snet-privatelinkendpoints" style="shape=image;verticalLabelPosition=bottom;labelBackgroundColor=none;verticalAlign=top;aspect=fixed;imageAspect=0;image=data:image/svg+xml,PHN2ZyB4bWxucz0iaHR0cDovL3d3dy53My5vcmcvMjAwMC9zdmciIHZpZXdCb3g9IjAgMCAxNiAxNiI+JiN4YTsgIDxkZWZzPiYjeGE7ICAgIDxsaW5lYXJHcmFkaWVudCBpZD0iYiIgeDE9IjYuMTgiIHkxPSI4LjU5IiB4Mj0iNy44MSIgeTI9IjEwLjIzIiBncmFkaWVudFVuaXRzPSJ1c2VyU3BhY2VPblVzZSI+JiN4YTsgICAgICA8c3RvcCBvZmZzZXQ9IjAiIHN0b3AtY29sb3I9IiM4NmQ2MzMiLz4mI3hhOyAgICAgIDxzdG9wIG9mZnNldD0iMSIgc3RvcC1jb2xvcj0iIzVlOTYyNCIvPiYjeGE7ICAgIDwvbGluZWFyR3JhZGllbnQ+JiN4YTsmI3hhOyAgPC9kZWZzPiYjeGE7ICA8Y2lyY2xlIGN4PSI4IiBjeT0iOCIgcj0iMS4yIiBmaWxsPSJ1cmwoI2IpIi8+JiN4YTsgIDxwYXRoIGQ9Ik02LjE4MiAxMi42MzhsLS42NjQuNjY1YS4zLjMgMCAwMS0uNDI0IDBMLjE4IDguNDA0YS42LjYgMCAwMS0uMDAxLS44NDhsLjY2My0uNjY2IDUuMzQgNS4zMjRhLjMuMyAwIDAxMCAuNDI1eiIgZmlsbD0iIzUwZTZmZiIvPiYjeGE7ICA8cGF0aCBkPSJNNS40MTggMi43MDhsLjY2Ni42NjRhLjMuMyAwIDAxMCAuNDI0TC44MzggOS4wNTdsLS42NjYtLjY2M2EuNi42IDAgMDEtLjAwMS0uODQ5TDQuOTk0IDIuNzFhLjMuMyAwIDAxLjQyNCAweiIgZmlsbD0iIzE0OTBkZiIvPiYjeGE7ICA8cGF0aCBkPSJNMTUuMTU3IDYuODhsLjY2My42NjZhLjYuNiAwIDAxMCAuODQ4bC00LjkxNSA0LjlhLjMuMyAwIDAxLS40MjQgMGwtLjY2NC0uNjY2YS4zLjMgMCAwMTAtLjQyNGw1LjM0LTUuMzI0eiIgZmlsbD0iIzUwZTZmZiIvPiYjeGE7ICA8cGF0aCBkPSJNMTUuODE4IDguMzg3bC0uNjY1LjY2NC01LjI0Ny01LjI2MWEuMy4zIDAgMDEwLS40MjVsLjY3NC0uNjdhLjMuMyAwIDAxLjQyNCAwbDQuODIzIDQuODM2YS42LjYgMCAwMS0uMDAyLjg0OXoiIGZpbGw9IiMxNDkwZGYiLz4mI3hhOzwvc3ZnPg==;spacingTop=-5;fontFamily=Segoe UI;fontStyle=0;fontSize=10;fontColor=#000000;" parent="4V3ssLJCjmIX0rNH-N5X-32" vertex="1">
          <mxGeometry x="35" width="40" height="40" as="geometry" />
        </mxCell>
        <mxCell id="4V3ssLJCjmIX0rNH-N5X-34" value="10.240.4.32/28&amp;nbsp;↫" style="text;html=1;strokeColor=none;fillColor=#F5F5F5;align=center;verticalAlign=middle;whiteSpace=wrap;rounded=0;dashed=1;dashPattern=1 1;fontFamily=Lucida Console;fontSize=9;fontColor=#000000;" parent="4V3ssLJCjmIX0rNH-N5X-32" vertex="1">
          <mxGeometry y="54" width="110" height="20" as="geometry" />
        </mxCell>
        <mxCell id="zRif5njoNv-ngSvgMs1W-11" value="" style="image;aspect=fixed;html=1;points=[];align=center;fontSize=12;image=img/lib/azure2/networking/Network_Security_Groups.svg;" vertex="1" parent="4V3ssLJCjmIX0rNH-N5X-32">
          <mxGeometry x="80" y="13" width="11.53" height="14" as="geometry" />
        </mxCell>
        <mxCell id="4V3ssLJCjmIX0rNH-N5X-39" value="" style="group;labelBackgroundColor=none;fontColor=#000000;" parent="4V3ssLJCjmIX0rNH-N5X-1" vertex="1" connectable="0">
          <mxGeometry x="409" y="134" width="110" height="84" as="geometry" />
        </mxCell>
        <mxCell id="4V3ssLJCjmIX0rNH-N5X-40" value="vnet-spoke-bu04a42-00" style="shape=image;verticalLabelPosition=bottom;labelBackgroundColor=#F5F5F5;verticalAlign=top;aspect=fixed;imageAspect=0;image=data:image/svg+xml,PHN2ZyB4bWxucz0iaHR0cDovL3d3dy53My5vcmcvMjAwMC9zdmciIHZpZXdCb3g9IjAgMCAxOCAxOCI+PGRlZnM+PGxpbmVhckdyYWRpZW50IGlkPSJhIiB4MT0iOS44OCIgeTE9IjguNTkiIHgyPSIxMS41MiIgeTI9IjEwLjIzIiBncmFkaWVudFRyYW5zZm9ybT0icm90YXRlKC0uMDggLTI4NS40NjQgLTE0NTQuMDgpIiBncmFkaWVudFVuaXRzPSJ1c2VyU3BhY2VPblVzZSI+PHN0b3Agb2Zmc2V0PSIwIiBzdG9wLWNvbG9yPSIjODZkNjMzIi8+PHN0b3Agb2Zmc2V0PSIxIiBzdG9wLWNvbG9yPSIjNWU5NjI0Ii8+PC9saW5lYXJHcmFkaWVudD48bGluZWFyR3JhZGllbnQgaWQ9ImIiIHgxPSI2LjE4IiB5MT0iOC41OSIgeDI9IjcuODEiIHkyPSIxMC4yMyIgZ3JhZGllbnRVbml0cz0idXNlclNwYWNlT25Vc2UiPjxzdG9wIG9mZnNldD0iMCIgc3RvcC1jb2xvcj0iIzg2ZDYzMyIvPjxzdG9wIG9mZnNldD0iMSIgc3RvcC1jb2xvcj0iIzVlOTYyNCIvPjwvbGluZWFyR3JhZGllbnQ+PGxpbmVhckdyYWRpZW50IGlkPSJjIiB4MT0iMi40OCIgeTE9IjguNTkiIHgyPSI0LjExIiB5Mj0iMTAuMjMiIGdyYWRpZW50VW5pdHM9InVzZXJTcGFjZU9uVXNlIj48c3RvcCBvZmZzZXQ9IjAiIHN0b3AtY29sb3I9IiM4NmQ2MzMiLz48c3RvcCBvZmZzZXQ9IjEiIHN0b3AtY29sb3I9IiM1ZTk2MjQiLz48L2xpbmVhckdyYWRpZW50PjwvZGVmcz48Y2lyY2xlIGN4PSIxMi43NCIgY3k9IjguOTkiIHI9IjEuMTYiIGZpbGw9InVybCgjYSkiLz48Y2lyY2xlIGN4PSI5LjA0IiBjeT0iOSIgcj0iMS4xNiIgZmlsbD0idXJsKCNiKSIvPjxjaXJjbGUgY3g9IjUuMzQiIGN5PSI5IiByPSIxLjE2IiBmaWxsPSJ1cmwoI2MpIi8+PHBhdGggZD0iTTYuMTgyIDEzLjYzOGwtLjY2NC42NjVhLjMuMyAwIDAxLS40MjQgMEwuMTggOS40MDRhLjYuNiAwIDAxLS4wMDEtLjg0OGwuNjYzLS42NjYgNS4zNCA1LjMyNGEuMy4zIDAgMDEwIC40MjV6IiBmaWxsPSIjNTBlNmZmIi8+PHBhdGggZD0iTTUuNDE4IDMuNzA4bC42NjYuNjY0YS4zLjMgMCAwMTAgLjQyNEwuODM4IDEwLjA1N2wtLjY2Ni0uNjYzYS42LjYgMCAwMS0uMDAxLS44NDlMNC45OTQgMy43MWEuMy4zIDAgMDEuNDI0IDB6IiBmaWxsPSIjMTQ5MGRmIi8+PHBhdGggZD0iTTE3LjE1NyA3Ljg4bC42NjMuNjY2YS42LjYgMCAwMTAgLjg0OGwtNC45MTUgNC45YS4zLjMgMCAwMS0uNDI0IDBsLS42NjQtLjY2NmEuMy4zIDAgMDEwLS40MjRsNS4zNC01LjMyNHoiIGZpbGw9IiM1MGU2ZmYiLz48cGF0aCBkPSJNMTcuODE4IDkuMzg3bC0uNjY1LjY2NC01LjI0Ny01LjI2MWEuMy4zIDAgMDEwLS40MjVsLjY3NC0uNjdhLjMuMyAwIDAxLjQyNCAwbDQuODIzIDQuODM2YS42LjYgMCAwMS0uMDAyLjg0OXoiIGZpbGw9IiMxNDkwZGYiLz48L3N2Zz4=;fontFamily=Segoe UI;fontSize=10;spacingTop=-10;points=[[0,0,0,0,0],[0,0.24,0,0,0],[0,0.5,0,0,0],[0,0.76,0,0,0],[0,1,0,0,0],[0.2,1,0,0,0],[0.26,0,0,0,0],[0.4,1,0,0,0],[0.5,0,0,0,0],[0.6,1,0,0,0],[0.76,0,0,0,0],[0.8,1,0,0,0],[1,0,0,0,0],[1,0.26,0,0,0],[1,0.5,0,0,0],[1,0.76,0,0,0],[1,1,0,0,0]];fontColor=#000000;" parent="4V3ssLJCjmIX0rNH-N5X-39" vertex="1">
          <mxGeometry x="30" width="50" height="50" as="geometry" />
        </mxCell>
        <mxCell id="4V3ssLJCjmIX0rNH-N5X-41" value="10.240.0.0/21" style="text;html=1;strokeColor=none;fillColor=#F5F5F5;align=center;verticalAlign=middle;whiteSpace=wrap;rounded=0;dashed=1;dashPattern=1 1;fontFamily=Lucida Console;fontSize=9;labelBackgroundColor=#F5F5F5;fontColor=#000000;" parent="4V3ssLJCjmIX0rNH-N5X-39" vertex="1">
          <mxGeometry y="57" width="110" height="20" as="geometry" />
        </mxCell>
        <mxCell id="4V3ssLJCjmIX0rNH-N5X-42" value="route-to-eastus2-hub-fw&#xa;Applied: ↫" style="shape=image;verticalLabelPosition=bottom;labelBackgroundColor=none;verticalAlign=top;aspect=fixed;imageAspect=0;image=data:image/svg+xml,PHN2ZyB4bWxucz0iaHR0cDovL3d3dy53My5vcmcvMjAwMC9zdmciIHZpZXdCb3g9IjAgMCAxOCAxOCI+PGRlZnM+PGxpbmVhckdyYWRpZW50IGlkPSJhIiB4MT0iMTAuNTYiIHkxPSI3Ljc3IiB4Mj0iMTAuNTYiIHkyPSIxOS4yNCIgZ3JhZGllbnRVbml0cz0idXNlclNwYWNlT25Vc2UiPjxzdG9wIG9mZnNldD0iLjIyIiBzdG9wLWNvbG9yPSIjMzJkNGY1Ii8+PHN0b3Agb2Zmc2V0PSIxIiBzdG9wLWNvbG9yPSIjMTk4YWIzIi8+PC9saW5lYXJHcmFkaWVudD48bGluZWFyR3JhZGllbnQgaWQ9ImIiIHgxPSIxMC4yMyIgeTE9IjEuNjMiIHgyPSIxMS4wNyIgeTI9IjEyLjA0IiBncmFkaWVudFVuaXRzPSJ1c2VyU3BhY2VPblVzZSI+PHN0b3Agb2Zmc2V0PSIuMjIiIHN0b3AtY29sb3I9IiMzMmQ0ZjUiLz48c3RvcCBvZmZzZXQ9IjEiIHN0b3AtY29sb3I9IiMxOThhYjMiLz48L2xpbmVhckdyYWRpZW50PjwvZGVmcz48cGF0aCBkPSJNMTYuMjMgMTcuMTdBMS4yMSAxLjIxIDAgMDAxNy40NiAxNnYtLjJjLS40OS0zLjg2LTIuNjktNy02Ljg5LTdzLTYuNDggMi42Ni02LjkxIDdhMS4yNCAxLjI0IDAgMDAxLjEgMS4zNmgxMS40N3oiIGZpbGw9InVybCgjYSkiLz48cGF0aCBkPSJNMTAuNTcgOS43MWEzLjg2IDMuODYgMCAwMS0yLjEtLjYxbDIuMDggNS40MiAyLjA2LTUuMzlhMy44MyAzLjgzIDAgMDEtMi4wNC41OHoiIGZpbGw9IiNmZmYiIG9wYWNpdHk9Ii44Ii8+PGNpcmNsZSBjeD0iMTAuNTciIGN5PSI1Ljg0IiByPSIzLjg3IiBmaWxsPSJ1cmwoI2IpIi8+PHBhdGggZD0iTTYgNS44OFYxYS4xNi4xNiAwIDAwLS4xNi0uMTdINC41N2EuMTcuMTcgMCAwMC0uMTguMTd2NC43MWEuMTguMTggMCAwMS0uMTcuMTdIMy4xYS4xMi4xMiAwIDAxLS4xLS4xMlY0LjQ1YS4xMS4xMSAwIDAwLS4xOS0uMDhMLjU5IDYuNTdhLjE2LjE2IDAgMDAwIC4yNEwyLjc5IDlBLjExLjExIDAgMDAzIDguOTNWNy42MWEuMTEuMTEgMCAwMS4xLS4xMWgyLjc0QS4xNy4xNyAwIDAwNiA3LjMzVjUuODh6IiBmaWxsPSIjMDA3OGQ0Ii8+PC9zdmc+;fontSize=8;fontFamily=Segoe UI;points=[[0,0,0,0,0],[0,0.25,0,0,0],[0,0.5,0,0,0],[0,0.75,0,0,0],[0,1,0,0,0],[0.25,1,0,0,0],[0.4,0,0,0,0],[0.5,1,0,0,0],[0.6,0,0,0,0],[0.75,1,0,0,0],[1,0,0,0,0],[1,0.25,0,0,0],[1,0.5,0,0,0],[1,0.75,0,0,0],[1,1,0,0,0]];fontColor=#000000;fontStyle=0" parent="4V3ssLJCjmIX0rNH-N5X-1" vertex="1">
          <mxGeometry x="700" y="416" width="34" height="34" as="geometry" />
        </mxCell>
        <mxCell id="4V3ssLJCjmIX0rNH-N5X-48" value="" style="group;fontColor=#000000;" parent="4V3ssLJCjmIX0rNH-N5X-1" vertex="1" connectable="0">
          <mxGeometry x="70" y="130" width="110" height="79" as="geometry" />
        </mxCell>
        <mxCell id="4V3ssLJCjmIX0rNH-N5X-49" value="vnet-eastus2-hub" style="shape=image;verticalLabelPosition=bottom;labelBackgroundColor=#F5F5F5;verticalAlign=top;aspect=fixed;imageAspect=0;image=data:image/svg+xml,PHN2ZyB4bWxucz0iaHR0cDovL3d3dy53My5vcmcvMjAwMC9zdmciIHZpZXdCb3g9IjAgMCAxOCAxOCI+PGRlZnM+PGxpbmVhckdyYWRpZW50IGlkPSJhIiB4MT0iOS44OCIgeTE9IjguNTkiIHgyPSIxMS41MiIgeTI9IjEwLjIzIiBncmFkaWVudFRyYW5zZm9ybT0icm90YXRlKC0uMDggLTI4NS40NjQgLTE0NTQuMDgpIiBncmFkaWVudFVuaXRzPSJ1c2VyU3BhY2VPblVzZSI+PHN0b3Agb2Zmc2V0PSIwIiBzdG9wLWNvbG9yPSIjODZkNjMzIi8+PHN0b3Agb2Zmc2V0PSIxIiBzdG9wLWNvbG9yPSIjNWU5NjI0Ii8+PC9saW5lYXJHcmFkaWVudD48bGluZWFyR3JhZGllbnQgaWQ9ImIiIHgxPSI2LjE4IiB5MT0iOC41OSIgeDI9IjcuODEiIHkyPSIxMC4yMyIgZ3JhZGllbnRVbml0cz0idXNlclNwYWNlT25Vc2UiPjxzdG9wIG9mZnNldD0iMCIgc3RvcC1jb2xvcj0iIzg2ZDYzMyIvPjxzdG9wIG9mZnNldD0iMSIgc3RvcC1jb2xvcj0iIzVlOTYyNCIvPjwvbGluZWFyR3JhZGllbnQ+PGxpbmVhckdyYWRpZW50IGlkPSJjIiB4MT0iMi40OCIgeTE9IjguNTkiIHgyPSI0LjExIiB5Mj0iMTAuMjMiIGdyYWRpZW50VW5pdHM9InVzZXJTcGFjZU9uVXNlIj48c3RvcCBvZmZzZXQ9IjAiIHN0b3AtY29sb3I9IiM4NmQ2MzMiLz48c3RvcCBvZmZzZXQ9IjEiIHN0b3AtY29sb3I9IiM1ZTk2MjQiLz48L2xpbmVhckdyYWRpZW50PjwvZGVmcz48Y2lyY2xlIGN4PSIxMi43NCIgY3k9IjguOTkiIHI9IjEuMTYiIGZpbGw9InVybCgjYSkiLz48Y2lyY2xlIGN4PSI5LjA0IiBjeT0iOSIgcj0iMS4xNiIgZmlsbD0idXJsKCNiKSIvPjxjaXJjbGUgY3g9IjUuMzQiIGN5PSI5IiByPSIxLjE2IiBmaWxsPSJ1cmwoI2MpIi8+PHBhdGggZD0iTTYuMTgyIDEzLjYzOGwtLjY2NC42NjVhLjMuMyAwIDAxLS40MjQgMEwuMTggOS40MDRhLjYuNiAwIDAxLS4wMDEtLjg0OGwuNjYzLS42NjYgNS4zNCA1LjMyNGEuMy4zIDAgMDEwIC40MjV6IiBmaWxsPSIjNTBlNmZmIi8+PHBhdGggZD0iTTUuNDE4IDMuNzA4bC42NjYuNjY0YS4zLjMgMCAwMTAgLjQyNEwuODM4IDEwLjA1N2wtLjY2Ni0uNjYzYS42LjYgMCAwMS0uMDAxLS44NDlMNC45OTQgMy43MWEuMy4zIDAgMDEuNDI0IDB6IiBmaWxsPSIjMTQ5MGRmIi8+PHBhdGggZD0iTTE3LjE1NyA3Ljg4bC42NjMuNjY2YS42LjYgMCAwMTAgLjg0OGwtNC45MTUgNC45YS4zLjMgMCAwMS0uNDI0IDBsLS42NjQtLjY2NmEuMy4zIDAgMDEwLS40MjRsNS4zNC01LjMyNHoiIGZpbGw9IiM1MGU2ZmYiLz48cGF0aCBkPSJNMTcuODE4IDkuMzg3bC0uNjY1LjY2NC01LjI0Ny01LjI2MWEuMy4zIDAgMDEwLS40MjVsLjY3NC0uNjdhLjMuMyAwIDAxLjQyNCAwbDQuODIzIDQuODM2YS42LjYgMCAwMS0uMDAyLjg0OXoiIGZpbGw9IiMxNDkwZGYiLz48L3N2Zz4=;fontFamily=Segoe UI;fontSize=10;spacingTop=-10;fontColor=#000000;" parent="4V3ssLJCjmIX0rNH-N5X-48" vertex="1">
          <mxGeometry x="30" width="50" height="50" as="geometry" />
        </mxCell>
        <mxCell id="4V3ssLJCjmIX0rNH-N5X-50" value="10.200.0.0/24" style="text;html=1;strokeColor=none;fillColor=#F5F5F5;align=center;verticalAlign=bottom;whiteSpace=wrap;rounded=0;dashed=1;dashPattern=1 1;fontFamily=Lucida Console;fontSize=9;spacingTop=0;spacingBottom=0;fontColor=#000000;" parent="4V3ssLJCjmIX0rNH-N5X-48" vertex="1">
          <mxGeometry y="57" width="110" height="17" as="geometry" />
        </mxCell>
        <mxCell id="3ITH33qqQT6FfUMyr-md-19" value="" style="strokeWidth=1;html=1;shape=mxgraph.flowchart.annotation_2;align=left;labelPosition=right;pointerEvents=1;rounded=0;shadow=0;glass=0;sketch=0;fillColor=none;strokeColor=#999999;fontColor=#000000;" parent="4V3ssLJCjmIX0rNH-N5X-1" vertex="1">
          <mxGeometry x="170" y="193" width="30" height="70" as="geometry" />
        </mxCell>
        <mxCell id="3ITH33qqQT6FfUMyr-md-20" value="" style="strokeWidth=1;html=1;shape=mxgraph.flowchart.annotation_2;align=left;labelPosition=right;pointerEvents=1;rounded=0;shadow=0;glass=0;sketch=0;fillColor=none;strokeColor=#999999;fontColor=#000000;" parent="4V3ssLJCjmIX0rNH-N5X-1" vertex="1">
          <mxGeometry x="170" y="273" width="30" height="70" as="geometry" />
        </mxCell>
        <mxCell id="3ITH33qqQT6FfUMyr-md-21" value="" style="strokeWidth=1;html=1;shape=mxgraph.flowchart.annotation_2;align=left;labelPosition=right;pointerEvents=1;rounded=0;shadow=0;glass=0;sketch=0;fillColor=none;strokeColor=#999999;fontColor=#000000;" parent="4V3ssLJCjmIX0rNH-N5X-1" vertex="1">
          <mxGeometry x="170" y="353" width="30" height="70" as="geometry" />
        </mxCell>
        <mxCell id="3ITH33qqQT6FfUMyr-md-26" value="" style="shape=partialRectangle;whiteSpace=wrap;html=1;bottom=0;right=0;fillColor=none;rounded=0;shadow=0;glass=0;sketch=0;strokeColor=#999999;strokeWidth=1;rotation=90;fontColor=#000000;" parent="4V3ssLJCjmIX0rNH-N5X-1" vertex="1">
          <mxGeometry x="46" y="264" width="233" height="15" as="geometry" />
        </mxCell>
        <mxCell id="3ITH33qqQT6FfUMyr-md-28" value="" style="strokeWidth=1;html=1;shape=mxgraph.flowchart.annotation_2;align=left;labelPosition=right;pointerEvents=1;rounded=0;shadow=0;glass=0;sketch=0;fillColor=none;strokeColor=#999999;fontColor=#000000;" parent="4V3ssLJCjmIX0rNH-N5X-1" vertex="1">
          <mxGeometry x="540" y="123" width="30" height="70" as="geometry" />
        </mxCell>
        <mxCell id="3ITH33qqQT6FfUMyr-md-29" value="" style="strokeWidth=1;html=1;shape=mxgraph.flowchart.annotation_2;align=left;labelPosition=right;pointerEvents=1;rounded=0;shadow=0;glass=0;sketch=0;fillColor=none;strokeColor=#999999;fontColor=#000000;" parent="4V3ssLJCjmIX0rNH-N5X-1" vertex="1">
          <mxGeometry x="540" y="203" width="30" height="70" as="geometry" />
        </mxCell>
        <mxCell id="3ITH33qqQT6FfUMyr-md-30" value="" style="strokeWidth=1;html=1;shape=mxgraph.flowchart.annotation_2;align=left;labelPosition=right;pointerEvents=1;rounded=0;shadow=0;glass=0;sketch=0;fillColor=none;strokeColor=#999999;fontColor=#000000;" parent="4V3ssLJCjmIX0rNH-N5X-1" vertex="1">
          <mxGeometry x="540" y="283" width="30" height="70" as="geometry" />
        </mxCell>
        <mxCell id="3ITH33qqQT6FfUMyr-md-31" value="" style="shape=partialRectangle;whiteSpace=wrap;html=1;bottom=0;right=0;fillColor=none;rounded=0;shadow=0;glass=0;sketch=0;strokeColor=#999999;strokeWidth=1;rotation=90;fontColor=#000000;" parent="4V3ssLJCjmIX0rNH-N5X-1" vertex="1">
          <mxGeometry x="397.38" y="254.63" width="239.25" height="46" as="geometry" />
        </mxCell>
        <mxCell id="3ITH33qqQT6FfUMyr-md-32" value="" style="strokeWidth=1;html=1;shape=mxgraph.flowchart.annotation_2;align=left;labelPosition=right;pointerEvents=1;rounded=0;shadow=0;glass=0;sketch=0;fillColor=none;strokeColor=#999999;fontColor=#000000;" parent="4V3ssLJCjmIX0rNH-N5X-1" vertex="1">
          <mxGeometry x="540" y="363" width="30" height="70" as="geometry" />
        </mxCell>
        <mxCell id="zRif5njoNv-ngSvgMs1W-3" value="" style="group;strokeColor=none;rounded=0;glass=0;shadow=0;sketch=0;fontColor=#000000;" vertex="1" connectable="0" parent="4V3ssLJCjmIX0rNH-N5X-1">
          <mxGeometry x="410" y="324" width="110" height="74" as="geometry" />
        </mxCell>
        <mxCell id="zRif5njoNv-ngSvgMs1W-4" value="snet-applicationgateway" style="shape=image;verticalLabelPosition=bottom;labelBackgroundColor=none;verticalAlign=top;aspect=fixed;imageAspect=0;image=data:image/svg+xml,PHN2ZyB4bWxucz0iaHR0cDovL3d3dy53My5vcmcvMjAwMC9zdmciIHZpZXdCb3g9IjAgMCAxNiAxNiI+JiN4YTsgIDxkZWZzPiYjeGE7ICAgIDxsaW5lYXJHcmFkaWVudCBpZD0iYiIgeDE9IjYuMTgiIHkxPSI4LjU5IiB4Mj0iNy44MSIgeTI9IjEwLjIzIiBncmFkaWVudFVuaXRzPSJ1c2VyU3BhY2VPblVzZSI+JiN4YTsgICAgICA8c3RvcCBvZmZzZXQ9IjAiIHN0b3AtY29sb3I9IiM4NmQ2MzMiLz4mI3hhOyAgICAgIDxzdG9wIG9mZnNldD0iMSIgc3RvcC1jb2xvcj0iIzVlOTYyNCIvPiYjeGE7ICAgIDwvbGluZWFyR3JhZGllbnQ+JiN4YTsmI3hhOyAgPC9kZWZzPiYjeGE7ICA8Y2lyY2xlIGN4PSI4IiBjeT0iOCIgcj0iMS4yIiBmaWxsPSJ1cmwoI2IpIi8+JiN4YTsgIDxwYXRoIGQ9Ik02LjE4MiAxMi42MzhsLS42NjQuNjY1YS4zLjMgMCAwMS0uNDI0IDBMLjE4IDguNDA0YS42LjYgMCAwMS0uMDAxLS44NDhsLjY2My0uNjY2IDUuMzQgNS4zMjRhLjMuMyAwIDAxMCAuNDI1eiIgZmlsbD0iIzUwZTZmZiIvPiYjeGE7ICA8cGF0aCBkPSJNNS40MTggMi43MDhsLjY2Ni42NjRhLjMuMyAwIDAxMCAuNDI0TC44MzggOS4wNTdsLS42NjYtLjY2M2EuNi42IDAgMDEtLjAwMS0uODQ5TDQuOTk0IDIuNzFhLjMuMyAwIDAxLjQyNCAweiIgZmlsbD0iIzE0OTBkZiIvPiYjeGE7ICA8cGF0aCBkPSJNMTUuMTU3IDYuODhsLjY2My42NjZhLjYuNiAwIDAxMCAuODQ4bC00LjkxNSA0LjlhLjMuMyAwIDAxLS40MjQgMGwtLjY2NC0uNjY2YS4zLjMgMCAwMTAtLjQyNGw1LjM0LTUuMzI0eiIgZmlsbD0iIzUwZTZmZiIvPiYjeGE7ICA8cGF0aCBkPSJNMTUuODE4IDguMzg3bC0uNjY1LjY2NC01LjI0Ny01LjI2MWEuMy4zIDAgMDEwLS40MjVsLjY3NC0uNjdhLjMuMyAwIDAxLjQyNCAwbDQuODIzIDQuODM2YS42LjYgMCAwMS0uMDAyLjg0OXoiIGZpbGw9IiMxNDkwZGYiLz4mI3hhOzwvc3ZnPg==;spacingTop=-5;fontFamily=Segoe UI;fontStyle=0;fontSize=10;fontColor=#000000;" vertex="1" parent="zRif5njoNv-ngSvgMs1W-3">
          <mxGeometry x="35" width="40" height="40" as="geometry" />
        </mxCell>
        <mxCell id="zRif5njoNv-ngSvgMs1W-5" value="10.240.5.0/24" style="text;html=1;strokeColor=none;fillColor=#F5F5F5;align=center;verticalAlign=middle;whiteSpace=wrap;rounded=0;dashed=1;dashPattern=1 1;fontFamily=Lucida Console;fontSize=9;fontColor=#000000;" vertex="1" parent="zRif5njoNv-ngSvgMs1W-3">
          <mxGeometry y="54" width="110" height="20" as="geometry" />
        </mxCell>
        <mxCell id="zRif5njoNv-ngSvgMs1W-15" value="" style="image;aspect=fixed;html=1;points=[];align=center;fontSize=12;image=img/lib/azure2/networking/Network_Security_Groups.svg;" vertex="1" parent="zRif5njoNv-ngSvgMs1W-3">
          <mxGeometry x="80" y="13" width="11.53" height="14" as="geometry" />
        </mxCell>
        <mxCell id="zRif5njoNv-ngSvgMs1W-6" value="" style="strokeWidth=1;html=1;shape=mxgraph.flowchart.annotation_2;align=left;labelPosition=right;pointerEvents=1;rounded=0;shadow=0;glass=0;sketch=0;fillColor=none;strokeColor=#999999;fontColor=#000000;flipH=1;" vertex="1" parent="4V3ssLJCjmIX0rNH-N5X-1">
          <mxGeometry x="510" y="324" width="30" height="70" as="geometry" />
        </mxCell>
        <mxCell id="zRif5njoNv-ngSvgMs1W-7" value="" style="group;strokeColor=none;rounded=0;glass=0;shadow=0;sketch=0;fontColor=#000000;" vertex="1" connectable="0" parent="4V3ssLJCjmIX0rNH-N5X-1">
          <mxGeometry x="410" y="244" width="110" height="74" as="geometry" />
        </mxCell>
        <mxCell id="zRif5njoNv-ngSvgMs1W-8" value="snet-deploymentagents" style="shape=image;verticalLabelPosition=bottom;labelBackgroundColor=none;verticalAlign=top;aspect=fixed;imageAspect=0;image=data:image/svg+xml,PHN2ZyB4bWxucz0iaHR0cDovL3d3dy53My5vcmcvMjAwMC9zdmciIHZpZXdCb3g9IjAgMCAxNiAxNiI+JiN4YTsgIDxkZWZzPiYjeGE7ICAgIDxsaW5lYXJHcmFkaWVudCBpZD0iYiIgeDE9IjYuMTgiIHkxPSI4LjU5IiB4Mj0iNy44MSIgeTI9IjEwLjIzIiBncmFkaWVudFVuaXRzPSJ1c2VyU3BhY2VPblVzZSI+JiN4YTsgICAgICA8c3RvcCBvZmZzZXQ9IjAiIHN0b3AtY29sb3I9IiM4NmQ2MzMiLz4mI3hhOyAgICAgIDxzdG9wIG9mZnNldD0iMSIgc3RvcC1jb2xvcj0iIzVlOTYyNCIvPiYjeGE7ICAgIDwvbGluZWFyR3JhZGllbnQ+JiN4YTsmI3hhOyAgPC9kZWZzPiYjeGE7ICA8Y2lyY2xlIGN4PSI4IiBjeT0iOCIgcj0iMS4yIiBmaWxsPSJ1cmwoI2IpIi8+JiN4YTsgIDxwYXRoIGQ9Ik02LjE4MiAxMi42MzhsLS42NjQuNjY1YS4zLjMgMCAwMS0uNDI0IDBMLjE4IDguNDA0YS42LjYgMCAwMS0uMDAxLS44NDhsLjY2My0uNjY2IDUuMzQgNS4zMjRhLjMuMyAwIDAxMCAuNDI1eiIgZmlsbD0iIzUwZTZmZiIvPiYjeGE7ICA8cGF0aCBkPSJNNS40MTggMi43MDhsLjY2Ni42NjRhLjMuMyAwIDAxMCAuNDI0TC44MzggOS4wNTdsLS42NjYtLjY2M2EuNi42IDAgMDEtLjAwMS0uODQ5TDQuOTk0IDIuNzFhLjMuMyAwIDAxLjQyNCAweiIgZmlsbD0iIzE0OTBkZiIvPiYjeGE7ICA8cGF0aCBkPSJNMTUuMTU3IDYuODhsLjY2My42NjZhLjYuNiAwIDAxMCAuODQ4bC00LjkxNSA0LjlhLjMuMyAwIDAxLS40MjQgMGwtLjY2NC0uNjY2YS4zLjMgMCAwMTAtLjQyNGw1LjM0LTUuMzI0eiIgZmlsbD0iIzUwZTZmZiIvPiYjeGE7ICA8cGF0aCBkPSJNMTUuODE4IDguMzg3bC0uNjY1LjY2NC01LjI0Ny01LjI2MWEuMy4zIDAgMDEwLS40MjVsLjY3NC0uNjdhLjMuMyAwIDAxLjQyNCAwbDQuODIzIDQuODM2YS42LjYgMCAwMS0uMDAyLjg0OXoiIGZpbGw9IiMxNDkwZGYiLz4mI3hhOzwvc3ZnPg==;spacingTop=-5;fontFamily=Segoe UI;fontStyle=0;fontSize=10;fontColor=#000000;" vertex="1" parent="zRif5njoNv-ngSvgMs1W-7">
          <mxGeometry x="35" width="40" height="40" as="geometry" />
        </mxCell>
        <mxCell id="zRif5njoNv-ngSvgMs1W-9" value="10.240.4.96/28&amp;nbsp;↫" style="text;html=1;strokeColor=none;fillColor=#F5F5F5;align=center;verticalAlign=middle;whiteSpace=wrap;rounded=0;dashed=1;dashPattern=1 1;fontFamily=Lucida Console;fontSize=9;fontColor=#000000;" vertex="1" parent="zRif5njoNv-ngSvgMs1W-7">
          <mxGeometry y="54" width="110" height="20" as="geometry" />
        </mxCell>
        <mxCell id="zRif5njoNv-ngSvgMs1W-16" value="" style="image;aspect=fixed;html=1;points=[];align=center;fontSize=12;image=img/lib/azure2/networking/Network_Security_Groups.svg;" vertex="1" parent="zRif5njoNv-ngSvgMs1W-7">
          <mxGeometry x="80" y="13" width="11.53" height="14" as="geometry" />
        </mxCell>
        <mxCell id="zRif5njoNv-ngSvgMs1W-10" value="" style="strokeWidth=1;html=1;shape=mxgraph.flowchart.annotation_2;align=left;labelPosition=right;pointerEvents=1;rounded=0;shadow=0;glass=0;sketch=0;fillColor=none;strokeColor=#999999;fontColor=#000000;flipH=1;" vertex="1" parent="4V3ssLJCjmIX0rNH-N5X-1">
          <mxGeometry x="510" y="244" width="30" height="70" as="geometry" />
        </mxCell>
        <mxCell id="zRif5njoNv-ngSvgMs1W-14" value="" style="image;aspect=fixed;html=1;points=[];align=center;fontSize=12;image=img/lib/azure2/networking/Network_Security_Groups.svg;" vertex="1" parent="4V3ssLJCjmIX0rNH-N5X-1">
          <mxGeometry x="640" y="134" width="11.53" height="14" as="geometry" />
        </mxCell>
      </root>
    </mxGraphModel>
  </diagram>
</mxfile>
